<svg width="40" height="40" viewBox="0 0 40 40" fill="none" xmlns="http://www.w3.org/2000/svg">
<path d="M14.1667 27C12.8834 27 11.845 28.05 11.845 29.3333C11.845 30.6167 12.8834 31.6667 14.1667 31.6667C15.45 31.6667 16.5 30.6167 16.5 29.3333C16.5 28.05 15.45 27 14.1667 27ZM7.16669 9.49999C7.16669 10.1417 7.69169 10.6667 8.33335 10.6667H9.50002L13.7 19.5217L12.125 22.3683C11.2734 23.9317 12.3934 25.8333 14.1667 25.8333H27C27.6417 25.8333 28.1667 25.3083 28.1667 24.6667C28.1667 24.025 27.6417 23.5 27 23.5H14.1667L15.45 21.1667H24.1417C25.0167 21.1667 25.7867 20.6883 26.1834 19.965L30.36 12.3933C30.7917 11.6233 30.2317 10.6667 29.345 10.6667H12.0784L11.2967 8.99833C11.11 8.58999 10.69 8.33333 10.2467 8.33333H8.33335C7.69169 8.33333 7.16669 8.85833 7.16669 9.49999V9.49999ZM25.8334 27C24.55 27 23.5117 28.05 23.5117 29.3333C23.5117 30.6167 24.55 31.6667 25.8334 31.6667C27.1167 31.6667 28.1667 30.6167 28.1667 29.3333C28.1667 28.05 27.1167 27 25.8334 27Z" fill="#122C4B"/>
</svg>
