<svg width="66" height="65" viewBox="0 0 66 65" fill="none" xmlns="http://www.w3.org/2000/svg">
<circle cx="33" cy="32.5" r="32.5" fill="#122C4B"/>
<path d="M33 19.9999V23.5799C33 24.4799 34.08 24.9199 34.7 24.2799L40.28 18.6999C40.68 18.2999 40.68 17.6799 40.28 17.2799L34.7 11.6999C34.08 11.0799 33 11.5199 33 12.4199V15.9999C24.16 15.9999 17 23.1599 17 31.9999C17 34.0799 17.4 36.0799 18.14 37.8999C18.68 39.2399 20.4 39.5999 21.42 38.5799C21.96 38.0399 22.18 37.2199 21.88 36.4999C21.3 35.1199 21 33.5799 21 31.9999C21 25.3799 26.38 19.9999 33 19.9999ZM44.58 25.4199C44.04 25.9599 43.82 26.7999 44.12 27.4999C44.68 28.8999 45 30.4199 45 31.9999C45 38.6199 39.62 43.9999 33 43.9999V40.4199C33 39.5199 31.92 39.0799 31.3 39.7199L25.72 45.2999C25.32 45.6999 25.32 46.3199 25.72 46.7199L31.3 52.2999C31.92 52.9199 33 52.4799 33 51.5999V47.9999C41.84 47.9999 49 40.8399 49 31.9999C49 29.9199 48.6 27.9199 47.86 26.0999C47.32 24.7599 45.6 24.3999 44.58 25.4199Z" fill="white"/>
</svg>
