<svg width="66" height="65" viewBox="0 0 66 65" fill="none" xmlns="http://www.w3.org/2000/svg">
<circle cx="33" cy="32.5" r="32.5" fill="#122C4B"/>
<path d="M47.82 22.82L38.16 13.16C37.42 12.42 36.4 12 35.34 12H21C18.8 12 17.02 13.8 17.02 16L17 48C17 50.2 18.78 52 20.98 52H45C47.2 52 49 50.2 49 48V25.66C49 24.6 48.58 23.58 47.82 22.82ZM29.46 42.58L25.22 38.34C24.44 37.56 24.44 36.3 25.22 35.52C26 34.74 27.26 34.74 28.04 35.52L30.86 38.34L37.94 31.26C38.72 30.48 39.98 30.48 40.76 31.26C41.54 32.04 41.54 33.3 40.76 34.08L32.28 42.56C31.52 43.36 30.24 43.36 29.46 42.58ZM37 26C35.9 26 35 25.1 35 24V15L46 26H37Z" fill="white"/>
</svg>
