<svg width="65" height="65" viewBox="0 0 65 65" fill="none" xmlns="http://www.w3.org/2000/svg">
<circle cx="32.5" cy="32.5" r="32.5" fill="#0F2540" fill-opacity=""/>
<path d="M50.5779 24.1836C50.1554 22.6128 48.9169 21.3746 47.3463 20.9516C44.477 20.1665 32.9996 20.1665 32.9996 20.1665C32.9996 20.1665 21.5227 20.1665 18.6534 20.9218C17.113 21.3443 15.8443 22.613 15.4218 24.1836C14.6667 27.0527 14.6667 33.0027 14.6667 33.0027C14.6667 33.0027 14.6667 38.9828 15.4218 41.8219C15.8447 43.3925 17.0828 44.6307 18.6536 45.0537C21.5529 45.839 33.0001 45.839 33.0001 45.839C33.0001 45.839 44.477 45.839 47.3463 45.0837C48.9171 44.6609 50.1554 43.4227 50.5783 41.8521C51.3332 38.9828 51.3332 33.033 51.3332 33.033C51.3332 33.033 51.3634 27.0527 50.5779 24.1836V24.1836ZM29.3455 38.4996V27.5059L38.8895 33.0027L29.3455 38.4996Z" fill="white"/>
</svg>
