<svg width="1920" height="640" viewBox="0 0 1920 640" fill="none" xmlns="http://www.w3.org/2000/svg">
<g clip-path="url(#clip0_58_7484)">
<rect width="1920" height="640" fill="#122C4B"/>
<g opacity="0.1" clip-path="url(#clip1_58_7484)">
<path opacity="0.65" fill-rule="evenodd" clip-rule="evenodd" d="M132.822 925.901C112.574 915.414 98.489 897.216 91.3212 866.787C83.7653 834.682 48.7023 669.593 48.5882 669.111L-480.21 441.58C-530.933 419.573 -613.842 436.67 -662.967 473.088C-712.137 509.484 -710.813 556.826 -660.045 578.833L134.716 927.37C135.059 927.508 135.447 927.645 135.835 927.783L135.606 927.485C134.465 927.003 133.757 926.429 132.822 925.901Z" fill="white"/>
<path fill-rule="evenodd" clip-rule="evenodd" d="M703.892 -661.429C633.309 -656.289 570.922 -618.103 563.389 -575.787L448.795 67.4502C446.763 65.4078 607.537 230.703 650.179 274.351C663.419 287.913 667.596 302.485 665.701 316.782L819.011 -594.375C826.544 -636.691 774.497 -666.547 703.892 -661.429Z" fill="white"/>
<path fill-rule="evenodd" clip-rule="evenodd" d="M448.806 67.4527L401.896 332.71C401.896 332.71 392.833 370.208 433.603 391.733C480.559 416.517 543.769 409.495 585.109 395.198C638.799 376.633 694.476 319.699 650.19 274.353C607.526 230.706 446.729 65.3644 448.806 67.4527Z" fill="white"/>
<path opacity="0.65" fill-rule="evenodd" clip-rule="evenodd" d="M117.271 -271.869C122.019 -265.925 125.626 -259.041 127.407 -250.894L218.991 177.319V177.342L412.91 375.453C413.001 375.407 413.138 375.361 413.229 375.315C396.725 355.167 401.884 332.701 401.884 332.701L448.795 67.4657V67.4428L117.271 -271.869Z" fill="white"/>
<path fill-rule="evenodd" clip-rule="evenodd" d="M127.404 -250.898C117.041 -298.401 47.5539 -305.584 19.0652 -305.561C-45.7648 -305.515 -94.4558 -272.63 -108.403 -259.894C-123.652 -245.942 -148.237 -214.663 -131.391 -182.375C-112.992 -147.15 219.011 177.337 219.011 177.337L127.404 -250.898Z" fill="white"/>
<path fill-rule="evenodd" clip-rule="evenodd" d="M218.968 177.204C218.968 177.227 218.991 177.25 218.991 177.273L218.968 177.112V177.204Z" fill="white"/>
<path fill-rule="evenodd" clip-rule="evenodd" d="M219.002 177.33C219.002 177.307 219.002 177.307 219.002 177.284V177.33C219.002 177.33 -112.978 -147.157 -131.377 -182.382C-133.454 -186.352 -134.869 -190.322 -135.805 -194.247L48.5949 669.063L48.6177 669.086C49.5993 669.499 285.156 771.779 312.412 782.909C344.416 795.989 355.693 810.63 359.505 830.802C353.593 801.497 279.586 459.133 219.002 177.33Z" fill="white"/>
</g>
</g>
<defs>
<clipPath id="clip0_58_7484">
<rect width="1920" height="640" fill="white"/>
</clipPath>
<clipPath id="clip1_58_7484">
<rect width="1518.74" height="1600" fill="white" transform="translate(-699 -662)"/>
</clipPath>
</defs>
</svg>
