<svg width="32" height="32" viewBox="0 0 32 32" fill="none" xmlns="http://www.w3.org/2000/svg">
<path d="M19.64 17.7468C21.1467 15.6802 21.8134 12.9735 20.9467 10.0935C20.04 7.12015 17.52 4.78682 14.48 4.17349C8.28002 2.93349 2.93335 8.29349 4.18669 14.4802C4.80002 17.5335 7.13335 20.0535 10.1067 20.9468C12.9867 21.8135 15.6934 21.1468 17.76 19.6402L25.1734 27.0535C25.6934 27.5735 26.5334 27.5735 27.0534 27.0535C27.5734 26.5335 27.5734 25.6935 27.0534 25.1735L19.64 17.7468ZM12.6667 18.6668C9.34669 18.6668 6.66669 15.9868 6.66669 12.6668C6.66669 9.34682 9.34669 6.66682 12.6667 6.66682C15.9867 6.66682 18.6667 9.34682 18.6667 12.6668C18.6667 15.9868 15.9867 18.6668 12.6667 18.6668Z" fill="#122C4B"/>
</svg>
