<svg width="24" height="24" viewBox="0 0 24 24" fill="none" xmlns="http://www.w3.org/2000/svg">
<path d="M15.2929 8.70711C15.6834 8.31658 16.3166 8.31658 16.7071 8.70711C17.0976 9.09763 17.0976 9.7308 16.7071 10.1213L12.4645 14.364C12.0739 14.7545 11.4408 14.7545 11.0503 14.364C10.6597 13.9734 10.6597 13.3403 11.0503 12.9497L15.2929 8.70711Z" fill="#122C4B"/>
<path d="M6.70711 10.1213C6.31658 9.7308 6.31658 9.09763 6.70711 8.70711C7.09763 8.31659 7.7308 8.31659 8.12132 8.70711L12.364 12.9498C12.7545 13.3403 12.7545 13.9734 12.364 14.364C11.9734 14.7545 11.3403 14.7545 10.9497 14.364L6.70711 10.1213Z" fill="#122C4B"/>
</svg>
