<svg width="20" height="20" viewBox="0 0 20 20" fill="none" xmlns="http://www.w3.org/2000/svg">
<path d="M16.025 12.7167L13.9083 12.475C13.4 12.4167 12.9 12.5917 12.5416 12.95L11.0083 14.4833C8.64997 13.2833 6.71664 11.3583 5.51664 8.99167L7.05831 7.45C7.41664 7.09166 7.59164 6.59167 7.53331 6.08333L7.29164 3.98333C7.19164 3.14166 6.48331 2.50833 5.63331 2.50833H4.19164C3.24997 2.50833 2.46664 3.29166 2.52497 4.23333C2.96664 11.35 8.65831 17.0333 15.7666 17.475C16.7083 17.5333 17.4916 16.75 17.4916 15.8083V14.3667C17.5 13.525 16.8666 12.8167 16.025 12.7167V12.7167Z" fill="#122C4B"/>
</svg>
