<svg width="24" height="24" viewBox="0 0 24 24" fill="none" xmlns="http://www.w3.org/2000/svg">
<path d="M15.2929 8.70711C15.6834 8.31658 16.3166 8.31658 16.7071 8.70711C17.0976 9.09763 17.0976 9.7308 16.7071 10.1213L12.4644 14.364C12.0739 14.7545 11.4407 14.7545 11.0502 14.364C10.6597 13.9734 10.6597 13.3403 11.0502 12.9497L15.2929 8.70711Z" fill="#122C4B"/>
<path d="M6.70708 10.1213C6.31655 9.7308 6.31655 9.09763 6.70708 8.70711C7.0976 8.31659 7.73077 8.31659 8.12129 8.70711L12.3639 12.9498C12.7545 13.3403 12.7545 13.9734 12.3639 14.364C11.9734 14.7545 11.3402 14.7545 10.9497 14.364L6.70708 10.1213Z" fill="#122C4B"/>
</svg>
