<svg width="334" height="90" viewBox="0 0 334 90" fill="none" xmlns="http://www.w3.org/2000/svg">
<g clip-path="url(#clip0_8_36)">
<path fill-rule="evenodd" clip-rule="evenodd" d="M124.298 87.5714L118.399 63.7697H118.302L112.5 87.5714H104.749L95.5346 52.6027H103.189L108.697 76.4057H108.795L114.84 52.6027H122.007L127.955 76.6987H128.052L133.756 52.6027H141.264L131.904 87.5714H124.298Z" fill="#122C4B"/>
<path fill-rule="evenodd" clip-rule="evenodd" d="M148.088 81.4983C149.129 82.5116 150.624 83.0176 152.574 83.0176C153.971 83.0176 155.174 82.6665 156.181 81.9643C157.189 81.2621 157.806 80.5186 158.034 79.735H164.127C163.153 82.7724 161.658 84.9435 159.643 86.2486C157.626 87.5549 155.189 88.2081 152.33 88.2081C150.347 88.2081 148.56 87.8892 146.967 87.2528C145.374 86.6165 144.025 85.7103 142.92 84.5356C141.815 83.3597 140.963 81.9565 140.362 80.3236C139.76 78.6907 139.459 76.8952 139.459 74.9357C139.459 73.0421 139.768 71.2801 140.386 69.6459C141.003 68.0142 141.88 66.6021 143.018 65.4106C144.155 64.2192 145.512 63.2795 147.089 62.594C148.665 61.9086 150.412 61.5652 152.33 61.5652C154.476 61.5652 156.343 61.9822 157.936 62.8148C159.529 63.6474 160.837 64.7652 161.86 66.1697C162.884 67.5728 163.624 69.1734 164.079 70.969C164.534 72.7645 164.696 74.6427 164.566 76.6009H146.382C146.48 78.8534 147.048 80.4863 148.088 81.4983ZM155.914 68.1769C155.085 67.2643 153.825 66.806 152.135 66.806C151.029 66.806 150.111 66.9945 149.381 67.3688C148.649 67.7458 148.064 68.2105 147.625 68.7642C147.186 69.3206 146.878 69.9079 146.7 70.5275C146.52 71.1484 146.414 71.7035 146.382 72.1927H157.643C157.319 70.4294 156.742 69.0921 155.914 68.1769Z" fill="#122C4B"/>
<path fill-rule="evenodd" clip-rule="evenodd" d="M174.511 52.6031V65.3372H174.609C175.454 64.0309 176.6 63.0757 178.046 62.4715C179.491 61.8674 180.995 61.5654 182.556 61.5654C183.823 61.5654 185.074 61.8274 186.31 62.3489C187.544 62.8717 188.658 63.672 189.649 64.7486C190.64 65.8264 191.444 67.2063 192.063 68.887C192.68 70.5702 192.988 72.5697 192.988 74.8868C192.988 77.2051 192.68 79.2046 192.063 80.8866C191.444 82.5685 190.64 83.9472 189.649 85.025C188.658 86.1016 187.544 86.9032 186.31 87.4247C185.074 87.9462 183.823 88.2082 182.556 88.2082C180.703 88.2082 179.046 87.9139 177.582 87.3266C176.121 86.7392 175.015 85.7427 174.267 84.3383H174.171V87.5718H167.589V52.6031H174.511ZM185.725 71.8508C185.496 70.871 185.139 70.0061 184.652 69.2549C184.164 68.5036 183.555 67.9073 182.823 67.4671C182.092 67.0256 181.207 66.8062 180.166 66.8062C179.158 66.8062 178.282 67.0256 177.534 67.4671C176.786 67.9073 176.169 68.5036 175.682 69.2549C175.194 70.0061 174.837 70.871 174.609 71.8508C174.381 72.8292 174.267 73.858 174.267 74.9358C174.267 75.9814 174.381 76.9921 174.609 77.9732C174.837 78.9516 175.194 79.8165 175.682 80.5678C176.169 81.3203 176.786 81.9154 177.534 82.3556C178.282 82.797 179.158 83.0165 180.166 83.0165C181.207 83.0165 182.092 82.797 182.823 82.3556C183.555 81.9154 184.164 81.3203 184.652 80.5678C185.139 79.8165 185.496 78.9516 185.725 77.9732C185.952 76.9921 186.066 75.9814 186.066 74.9358C186.066 73.858 185.952 72.8292 185.725 71.8508Z" fill="#122C4B"/>
<path fill-rule="evenodd" clip-rule="evenodd" d="M213.421 65.7778C212.283 64.6999 210.691 64.1603 208.644 64.1603C207.181 64.1603 205.897 64.4714 204.792 65.0923C203.687 65.7119 202.769 66.529 202.037 67.541C201.307 68.553 200.754 69.7045 200.38 70.9927C200.005 72.2836 199.82 73.5976 199.82 74.9362C199.82 76.2748 200.005 77.5889 200.38 78.8784C200.754 80.168 201.307 81.3194 202.037 82.3314C202.769 83.3434 203.687 84.1605 204.792 84.7801C205.897 85.401 207.181 85.7108 208.644 85.7108C209.586 85.7108 210.479 85.5314 211.325 85.1713C212.17 84.8124 212.916 84.3154 213.567 83.6777C214.218 83.0414 214.753 82.2824 215.177 81.4007C215.599 80.5191 215.859 79.5561 215.956 78.5118H219.027C218.605 81.5801 217.483 83.9721 215.665 85.6863C213.843 87.4005 211.503 88.2576 208.644 88.2576C206.726 88.2576 205.027 87.9052 203.549 87.2043C202.069 86.5021 200.826 85.5469 199.82 84.3387C198.811 83.1317 198.047 81.7183 197.528 80.1021C197.008 78.4873 196.749 76.7653 196.749 74.9362C196.749 73.1084 197.008 71.3851 197.528 69.769C198.047 68.1529 198.811 66.7407 199.82 65.5325C200.826 64.3243 202.069 63.3613 203.549 62.6423C205.027 61.9246 206.726 61.5658 208.644 61.5658C211.34 61.5658 213.624 62.2835 215.493 63.7202C217.362 65.1582 218.475 67.328 218.832 70.2337H215.761C215.339 68.3414 214.558 66.8556 213.421 65.7778Z" fill="#122C4B"/>
<path fill-rule="evenodd" clip-rule="evenodd" d="M225.584 79.2211C225.893 80.4139 226.388 81.4827 227.071 82.4289C227.754 83.3763 228.615 84.1599 229.655 84.7795C230.695 85.4004 231.947 85.7102 233.409 85.7102C235.651 85.7102 237.407 85.1228 238.675 83.9469C239.942 82.7722 240.82 81.2052 241.307 79.2457H244.379C243.728 82.1191 242.534 84.3393 240.795 85.9064C239.055 87.4735 236.594 88.257 233.409 88.257C231.427 88.257 229.711 87.9059 228.267 87.2037C226.82 86.5027 225.641 85.5398 224.731 84.3148C223.821 83.0898 223.147 81.6699 222.708 80.0537C222.269 78.4376 222.05 76.7324 222.05 74.9356C222.05 73.2704 222.269 71.6388 222.708 70.0382C223.147 68.4388 223.821 67.0099 224.731 65.7526C225.641 64.4966 226.82 63.4833 228.267 62.7165C229.711 61.9498 231.427 61.5651 233.409 61.5651C235.424 61.5651 237.146 61.9743 238.576 62.7901C240.007 63.6059 241.168 64.676 242.063 65.9978C242.956 67.321 243.598 68.839 243.989 70.5519C244.379 72.2674 244.54 74.0062 244.476 75.7682H225.122C225.122 76.8783 225.276 78.0297 225.584 79.2211ZM240.795 69.7929C240.421 68.7163 239.893 67.7611 239.212 66.9285C238.529 66.096 237.699 65.4273 236.724 64.9213C235.75 64.4153 234.645 64.161 233.409 64.161C232.142 64.161 231.021 64.4153 230.045 64.9213C229.071 65.4273 228.242 66.096 227.559 66.9285C226.876 67.7611 226.332 68.7241 225.925 69.8187C225.52 70.9121 225.251 72.0299 225.122 73.1723H241.405C241.371 71.9976 241.168 70.8707 240.795 69.7929Z" fill="#122C4B"/>
<path fill-rule="evenodd" clip-rule="evenodd" d="M251.643 62.3V66.6591H251.741C252.324 65.1243 253.364 63.8916 254.859 62.9609C256.354 62.0315 257.996 61.5655 259.784 61.5655C261.539 61.5655 263.01 61.794 264.196 62.2509C265.382 62.7092 266.332 63.3533 267.047 64.1859C267.762 65.0185 268.266 66.0395 268.559 67.2465C268.852 68.4547 268.998 69.81 268.998 71.3113V87.5719H265.927V71.8018C265.927 70.724 265.829 69.7197 265.634 68.789C265.439 67.8596 265.098 67.0502 264.61 66.3648C264.122 65.6794 263.464 65.1411 262.635 64.7487C261.807 64.3576 260.775 64.1614 259.54 64.1614C258.305 64.1614 257.207 64.3808 256.25 64.8223C255.29 65.2624 254.477 65.8678 253.812 66.6346C253.145 67.4026 252.625 68.3166 252.252 69.3776C251.877 70.4387 251.675 71.5888 251.643 72.8293V87.5719H248.572V62.3H251.643Z" fill="#122C4B"/>
<path fill-rule="evenodd" clip-rule="evenodd" d="M284.793 62.3V64.8958H279.674V81.9387C279.674 82.952 279.812 83.7433 280.088 84.3152C280.364 84.8857 281.055 85.2045 282.16 85.2691C283.038 85.2691 283.915 85.22 284.793 85.1219V87.7191C284.337 87.7191 283.882 87.7346 283.427 87.7668C282.972 87.7991 282.517 87.8159 282.063 87.8159C280.014 87.8159 278.584 87.417 277.772 86.6167C276.96 85.8164 276.569 84.3384 276.603 82.184V64.8958H272.215V62.3H276.603V54.7099H279.674V62.3H284.793Z" fill="#122C4B"/>
<path fill-rule="evenodd" clip-rule="evenodd" d="M292.056 62.3V68.2262H292.153C292.934 66.1686 294.143 64.586 295.785 63.4759C297.427 62.3658 299.385 61.8598 301.66 61.9579V65.043C300.262 64.9785 298.996 65.1656 297.857 65.6058C296.72 66.046 295.738 66.6759 294.909 67.4917C294.08 68.3075 293.437 69.2795 292.983 70.4064C292.527 71.532 292.3 72.7648 292.3 74.1034V87.5719H289.229V62.3H292.056Z" fill="#122C4B"/>
<path fill-rule="evenodd" clip-rule="evenodd" d="M305.218 66.2183C305.738 65.1405 306.446 64.2601 307.339 63.5734C308.232 62.888 309.28 62.3819 310.484 62.0554C311.685 61.7288 313.019 61.5648 314.481 61.5648C315.586 61.5648 316.691 61.672 317.796 61.8837C318.901 62.0967 319.892 62.4968 320.77 63.0829C321.648 63.6715 322.363 64.4963 322.916 65.5574C323.468 66.6185 323.746 67.9984 323.746 69.6958V83.1153C323.746 84.3558 324.346 84.9754 325.549 84.9754C325.905 84.9754 326.23 84.9109 326.522 84.7792V87.3751C326.165 87.4409 325.848 87.49 325.571 87.5222C325.297 87.5558 324.946 87.5713 324.524 87.5713C323.746 87.5713 323.117 87.4654 322.647 87.2537C322.176 87.0407 321.811 86.7387 321.55 86.3476C321.29 85.9552 321.119 85.4905 321.039 84.9509C320.956 84.4126 320.917 83.8175 320.917 83.1631H320.819C320.265 83.9802 319.705 84.7069 319.137 85.3433C318.568 85.9797 317.934 86.5102 317.236 86.9349C316.536 87.3596 315.74 87.6849 314.847 87.9146C313.953 88.1418 312.888 88.2567 311.653 88.2567C310.484 88.2567 309.386 88.1186 308.363 87.8411C307.339 87.5635 306.446 87.1234 305.682 86.5192C304.917 85.9151 304.317 85.1471 303.878 84.2164C303.439 83.2857 303.22 82.1846 303.22 80.9106C303.22 79.1473 303.61 77.7687 304.389 76.7722C305.169 75.7769 306.201 75.0179 307.486 74.4951C308.769 73.9723 310.216 73.6057 311.825 73.3928C313.433 73.1811 315.066 72.9771 316.723 72.7809C317.374 72.7151 317.943 72.6337 318.43 72.5356C318.918 72.4375 319.323 72.2672 319.648 72.0219C319.974 71.7766 320.225 71.4423 320.405 71.0176C320.583 70.5942 320.673 70.0379 320.673 69.3525C320.673 68.3082 320.502 67.4511 320.161 66.7811C319.82 66.1125 319.348 65.5806 318.747 65.1895C318.145 64.7984 317.448 64.5286 316.651 64.3815C315.853 64.2343 315 64.1607 314.091 64.1607C312.141 64.1607 310.548 64.6267 309.314 65.5574C308.079 66.4868 307.428 67.9816 307.364 70.0379H304.293C304.389 68.5689 304.698 67.2962 305.218 66.2183ZM320.575 73.7606C320.38 74.1195 320.006 74.3815 319.454 74.5442C318.901 74.7081 318.413 74.8217 317.991 74.8875C316.691 75.116 315.35 75.32 313.969 75.4994C312.588 75.6788 311.329 75.9486 310.192 76.3075C309.053 76.6663 308.119 77.1814 307.388 77.85C306.656 78.5187 306.291 79.4752 306.291 80.7157C306.291 81.4979 306.446 82.1924 306.754 82.7965C307.063 83.4006 307.477 83.9221 307.997 84.3636C308.518 84.8037 309.119 85.1393 309.801 85.3678C310.484 85.5963 311.182 85.7099 311.897 85.7099C313.068 85.7099 314.188 85.5318 315.261 85.1716C316.334 84.8128 317.268 84.29 318.065 83.6046C318.861 82.9191 319.495 82.0865 319.966 81.1068C320.437 80.127 320.673 79.0169 320.673 77.7764V73.7606H320.575Z" fill="#122C4B"/>
<path fill-rule="evenodd" clip-rule="evenodd" d="M329.935 87.5718H333.005V52.6031H329.935V87.5718Z" fill="#122C4B"/>
<g clip-path="url(#clip1_8_36)">
<path fill-rule="evenodd" clip-rule="evenodd" d="M47.0373 89.3195C45.8924 88.7296 45.0959 87.7059 44.6906 85.9943C44.2633 84.1884 42.2806 74.9021 42.2742 74.875L12.372 62.0764C9.50375 60.8385 4.81544 61.8002 2.03757 63.8487C-0.742887 65.896 -0.668018 68.559 2.2028 69.7969L47.1445 89.4021C47.1638 89.4098 47.1858 89.4176 47.2077 89.4253L47.1948 89.4085C47.1303 89.3814 47.0903 89.3492 47.0373 89.3195Z" fill="#122C4B"/>
<path fill-rule="evenodd" clip-rule="evenodd" d="M79.3299 0.0321048C75.3386 0.321252 71.8108 2.4692 71.3848 4.8495L64.9048 41.0316C64.7899 40.9167 73.8813 50.2146 76.2925 52.6697C77.0412 53.4326 77.2774 54.2523 77.1703 55.0565L85.8395 3.80392C86.2655 1.42362 83.3224 -0.255751 79.3299 0.0321048Z" fill="#BFDEF0"/>
<path fill-rule="evenodd" clip-rule="evenodd" d="M64.9054 41.0317L62.2528 55.9525C62.2528 55.9525 61.7403 58.0617 64.0457 59.2725C66.701 60.6666 70.2753 60.2716 72.613 59.4674C75.649 58.4231 78.7974 55.2206 76.2932 52.6699C73.8806 50.2147 64.788 40.9142 64.9054 41.0317Z" fill="#12B8E7"/>
<path fill-rule="evenodd" clip-rule="evenodd" d="M46.158 21.9449C46.4265 22.2792 46.6305 22.6665 46.7312 23.1247L51.91 47.2117V47.213L62.8756 58.3567C62.8808 58.3541 62.8885 58.3516 62.8937 58.349C61.9604 57.2156 62.2521 55.9519 62.2521 55.9519L64.9048 41.0324V41.0312L46.158 21.9449Z" fill="#8CBFEB"/>
<path fill-rule="evenodd" clip-rule="evenodd" d="M46.731 23.1245C46.145 20.4524 42.2157 20.0484 40.6047 20.0497C36.9387 20.0523 34.1854 21.902 33.3967 22.6184C32.5344 23.4033 31.1442 25.1627 32.0968 26.9789C33.1372 28.9603 51.9111 47.2127 51.9111 47.2127L46.731 23.1245Z" fill="#00B2C7"/>
<path fill-rule="evenodd" clip-rule="evenodd" d="M59.8891 84.4546C59.8865 87.7759 54.7955 90 50.5525 90C47.408 90 45.4266 89.1029 44.6908 85.9945C44.2623 84.1861 42.2731 74.8714 42.2731 74.8714C42.2731 74.8714 55.6474 80.6492 57.1926 81.2765C59.2734 82.122 59.8904 83.1831 59.8891 84.4546Z" fill="#1F6973"/>
<path fill-rule="evenodd" clip-rule="evenodd" d="M51.9087 47.2052C51.9087 47.2065 51.91 47.2078 51.91 47.2091L51.9087 47.2V47.2052Z" fill="#009E6A"/>
<path fill-rule="evenodd" clip-rule="evenodd" d="M51.9106 47.2123C51.9106 47.211 51.9106 47.211 51.9106 47.2097V47.2123C51.9106 47.2123 33.138 28.9599 32.0976 26.9785C31.9801 26.7552 31.9001 26.5319 31.8472 26.3111L42.2745 74.8723L42.2758 74.8736C42.3313 74.8968 55.6514 80.6501 57.1927 81.2761C59.0024 82.0119 59.6401 82.8354 59.8557 83.9701C59.5214 82.3217 55.3365 63.0637 51.9106 47.2123Z" fill="#0AA872"/>
</g>
</g>
<defs>
<clipPath id="clip0_8_36">
<rect width="333.005" height="90" fill="white"/>
</clipPath>
<clipPath id="clip1_8_36">
<rect width="85.8805" height="90" fill="white"/>
</clipPath>
</defs>
</svg>
