<svg width="66" height="65" viewBox="0 0 66 65" fill="none" xmlns="http://www.w3.org/2000/svg">
<circle cx="33" cy="32.5" r="32.5" fill="#122C4B"/>
<path d="M13.12 29.12C14.14 30.14 15.76 30.24 16.86 29.32C26.2 21.64 39.76 21.64 49.12 29.3C50.24 30.22 51.88 30.14 52.9 29.12C54.08 27.94 54 25.98 52.7 24.92C41.28 15.58 24.76 15.58 13.32 24.92C12.02 25.96 11.92 27.92 13.12 29.12V29.12ZM28.64 44.64L31.58 47.58C32.36 48.36 33.62 48.36 34.4 47.58L37.34 44.64C38.28 43.7 38.08 42.08 36.88 41.46C34.44 40.2 31.52 40.2 29.06 41.46C27.92 42.08 27.7 43.7 28.64 44.64ZM21.18 37.18C22.16 38.16 23.7 38.26 24.84 37.44C29.72 33.98 36.28 33.98 41.16 37.44C42.3 38.24 43.84 38.16 44.82 37.18L44.84 37.16C46.04 35.96 45.96 33.92 44.58 32.94C37.7 27.96 28.32 27.96 21.42 32.94C20.04 33.94 19.96 35.96 21.18 37.18V37.18Z" fill="white"/>
</svg>
