<svg width="22" height="21" viewBox="0 0 22 21" fill="none" xmlns="http://www.w3.org/2000/svg">
<path d="M10.2391 1.34164C10.4785 0.604592 11.5213 0.604593 11.7608 1.34164L13.6941 7.2918C13.8012 7.62142 14.1083 7.84458 14.4549 7.84458H20.7113C21.4863 7.84458 21.8085 8.83628 21.1815 9.2918L16.12 12.9692C15.8396 13.1729 15.7223 13.534 15.8294 13.8636L17.7627 19.8138C18.0022 20.5508 17.1586 21.1637 16.5316 20.7082L11.4701 17.0308C11.1897 16.8271 10.8101 16.8271 10.5297 17.0308L5.46817 20.7082C4.8412 21.1637 3.99762 20.5508 4.2371 19.8138L6.17042 13.8636C6.27752 13.534 6.1602 13.1729 5.87981 12.9692L0.8183 9.2918C0.191329 8.83628 0.51355 7.84458 1.28853 7.84458H7.54489C7.89147 7.84458 8.19864 7.62142 8.30574 7.2918L10.2391 1.34164Z" fill="#CF9C19"/>
</svg>
