<svg width="30" height="29" viewBox="0 0 30 29" fill="none" xmlns="http://www.w3.org/2000/svg">
<path d="M13.8321 1.47444C14.1647 0.450766 15.6129 0.450768 15.9455 1.47445L18.6307 9.73855C18.7794 10.1964 19.2061 10.5063 19.6874 10.5063H28.3768C29.4532 10.5063 29.9007 11.8837 29.0299 12.5163L22 17.6238C21.6106 17.9068 21.4477 18.4083 21.5964 18.8661L24.2816 27.1302C24.6142 28.1539 23.4426 29.0051 22.5718 28.3724L15.5419 23.265C15.1525 22.982 14.6251 22.982 14.2357 23.265L7.20584 28.3725C6.33504 29.0051 5.1634 28.1539 5.49601 27.1302L8.18118 18.8661C8.32993 18.4083 8.16698 17.9068 7.77755 17.6238L0.74768 12.5163C-0.123113 11.8837 0.324417 10.5063 1.40078 10.5063H10.0902C10.5715 10.5063 10.9982 10.1964 11.1469 9.73855L13.8321 1.47444Z" fill="#CF9C19"/>
</svg>
