<svg width="22" height="21" viewBox="0 0 22 21" fill="none" xmlns="http://www.w3.org/2000/svg">
<path d="M10.4391 1.34164C10.6785 0.604592 11.7213 0.604593 11.9607 1.34164L13.8941 7.2918C14.0012 7.62142 14.3083 7.84458 14.6549 7.84458H20.9113C21.6863 7.84458 22.0085 8.83628 21.3815 9.2918L16.32 12.9692C16.0396 13.1729 15.9223 13.534 16.0294 13.8636L17.9627 19.8138C18.2022 20.5508 17.3586 21.1637 16.7316 20.7082L11.6701 17.0308C11.3897 16.8271 11.0101 16.8271 10.7297 17.0308L5.66817 20.7082C5.0412 21.1637 4.19762 20.5508 4.4371 19.8138L6.37042 13.8636C6.47752 13.534 6.36019 13.1729 6.0798 12.9692L1.0183 9.2918C0.391326 8.83628 0.713547 7.84458 1.48853 7.84458H7.74489C8.09147 7.84458 8.39864 7.62142 8.50574 7.2918L10.4391 1.34164Z" fill="#CF9C19"/>
</svg>
