<svg width="22" height="21" viewBox="0 0 22 21" fill="none" xmlns="http://www.w3.org/2000/svg">
<path d="M10.0391 1.34164C10.2785 0.604592 11.3213 0.604593 11.5608 1.34164L13.4941 7.2918C13.6012 7.62142 13.9083 7.84458 14.2549 7.84458H20.5113C21.2863 7.84458 21.6085 8.83628 20.9815 9.2918L15.92 12.9692C15.6396 13.1729 15.5223 13.534 15.6294 13.8636L17.5627 19.8138C17.8022 20.5508 16.9586 21.1637 16.3316 20.7082L11.2701 17.0308C10.9897 16.8271 10.6101 16.8271 10.3297 17.0308L5.26818 20.7082C4.64121 21.1637 3.79762 20.5508 4.0371 19.8138L5.97043 13.8636C6.07753 13.534 5.9602 13.1729 5.67981 12.9692L0.618303 9.2918C-0.00866749 8.83628 0.313553 7.84458 1.08853 7.84458H7.3449C7.69148 7.84458 7.99864 7.62142 8.10574 7.2918L10.0391 1.34164Z" fill="#CF9C19"/>
</svg>
