<svg width="22" height="21" viewBox="0 0 22 21" fill="none" xmlns="http://www.w3.org/2000/svg">
<path d="M9.83914 1.34164C10.0786 0.604592 11.1214 0.604593 11.3608 1.34164L13.2942 7.2918C13.4013 7.62142 13.7084 7.84458 14.055 7.84458H20.3114C21.0863 7.84458 21.4086 8.83628 20.7816 9.2918L15.7201 12.9692C15.4397 13.1729 15.3224 13.534 15.4295 13.8636L17.3628 19.8138C17.6023 20.5508 16.7587 21.1637 16.1317 20.7082L11.0702 17.0308C10.7898 16.8271 10.4102 16.8271 10.1298 17.0308L5.06826 20.7082C4.44128 21.1637 3.5977 20.5508 3.83718 19.8138L5.7705 13.8636C5.8776 13.534 5.76028 13.1729 5.47989 12.9692L0.418383 9.2918C-0.208588 8.83628 0.113633 7.84458 0.888611 7.84458H7.14498C7.49156 7.84458 7.79872 7.62142 7.90582 7.2918L9.83914 1.34164Z" fill="#CF9C19"/>
</svg>
