<svg width="22" height="21" viewBox="0 0 22 21" fill="none" xmlns="http://www.w3.org/2000/svg">
<path d="M10.239 1.34164C10.4785 0.604592 11.5213 0.604593 11.7607 1.34164L13.6941 7.2918C13.8012 7.62142 14.1083 7.84458 14.4549 7.84458H20.7113C21.4862 7.84458 21.8085 8.83628 21.1815 9.2918L16.12 12.9692C15.8396 13.1729 15.7223 13.534 15.8294 13.8636L17.7627 19.8138C18.0022 20.5508 17.1586 21.1637 16.5316 20.7082L11.4701 17.0308C11.1897 16.8271 10.8101 16.8271 10.5297 17.0308L5.46816 20.7082C4.84119 21.1637 3.9976 20.5508 4.23708 19.8138L6.17041 13.8636C6.27751 13.534 6.16018 13.1729 5.87979 12.9692L0.818285 9.2918C0.191314 8.83628 0.513535 7.84458 1.28851 7.84458H7.54488C7.89146 7.84458 8.19862 7.62142 8.30572 7.2918L10.239 1.34164Z" fill="#CF9C19"/>
</svg>
