<svg width="30" height="29" viewBox="0 0 30 29" fill="none" xmlns="http://www.w3.org/2000/svg">
<path d="M14.2766 1.47444C14.6092 0.450766 16.0574 0.450768 16.39 1.47445L19.0752 9.73855C19.224 10.1964 19.6506 10.5063 20.1319 10.5063H28.8213C29.8977 10.5063 30.3452 11.8837 29.4744 12.5163L22.4446 17.6238C22.0551 17.9068 21.8922 18.4083 22.0409 18.8661L24.7261 27.1302C25.0587 28.1539 23.8871 29.0051 23.0163 28.3724L15.9864 23.265C15.597 22.982 15.0697 22.982 14.6802 23.265L7.65036 28.3725C6.77956 29.0051 5.60792 28.1539 5.94053 27.1302L8.6257 18.8661C8.77445 18.4083 8.6115 17.9068 8.22207 17.6238L1.1922 12.5163C0.321406 11.8837 0.768936 10.5063 1.8453 10.5063H10.5347C11.0161 10.5063 11.4427 10.1964 11.5914 9.73855L14.2766 1.47444Z" fill="#CF9C19"/>
</svg>
