<svg width="22" height="21" viewBox="0 0 22 21" fill="none" xmlns="http://www.w3.org/2000/svg">
<path d="M10.6391 1.34164C10.8786 0.604592 11.9213 0.604593 12.1608 1.34164L14.0941 7.2918C14.2012 7.62142 14.5083 7.84458 14.8549 7.84458H21.1113C21.8863 7.84458 22.2085 8.83628 21.5815 9.2918L16.52 12.9692C16.2396 13.1729 16.1223 13.534 16.2294 13.8636L18.1627 19.8138C18.4022 20.5508 17.5586 21.1637 16.9316 20.7082L11.8701 17.0308C11.5898 16.8271 11.2101 16.8271 10.9297 17.0308L5.86818 20.7082C5.24121 21.1637 4.39763 20.5508 4.63711 19.8138L6.57043 13.8636C6.67753 13.534 6.5602 13.1729 6.27981 12.9692L1.21831 9.2918C0.591339 8.83628 0.913559 7.84458 1.68854 7.84458H7.9449C8.29148 7.84458 8.59865 7.62142 8.70575 7.2918L10.6391 1.34164Z" fill="#CF9C19"/>
</svg>
