<svg width="31" height="29" viewBox="0 0 31 29" fill="none" xmlns="http://www.w3.org/2000/svg">
<path d="M14.4988 1.47444C14.8314 0.450766 16.2796 0.450768 16.6122 1.47445L19.2974 9.73855C19.4461 10.1964 19.8728 10.5063 20.3541 10.5063H29.0435C30.1199 10.5063 30.5674 11.8837 29.6966 12.5163L22.6667 17.6238C22.2773 17.9068 22.1144 18.4083 22.2631 18.8661L24.9483 27.1302C25.2809 28.1539 24.1092 29.0051 23.2384 28.3724L16.2086 23.265C15.8192 22.982 15.2918 22.982 14.9024 23.265L7.87252 28.3725C7.00173 29.0051 5.83009 28.1539 6.1627 27.1302L8.84787 18.8661C8.99662 18.4083 8.83367 17.9068 8.44424 17.6238L1.41437 12.5163C0.543574 11.8837 0.991104 10.5063 2.06746 10.5063H10.7569C11.2382 10.5063 11.6648 10.1964 11.8136 9.73855L14.4988 1.47444Z" fill="#CF9C19"/>
</svg>
