<svg width="30" height="29" viewBox="0 0 30 29" fill="none" xmlns="http://www.w3.org/2000/svg">
<path d="M14.0544 1.47444C14.387 0.450766 15.8352 0.450768 16.1678 1.47445L18.853 9.73855C19.0017 10.1964 19.4284 10.5063 19.9097 10.5063H28.5991C29.6755 10.5063 30.123 11.8837 29.2522 12.5163L22.2223 17.6238C21.8329 17.9068 21.67 18.4083 21.8187 18.8661L24.5039 27.1302C24.8365 28.1539 23.6648 29.0051 22.7941 28.3724L15.7642 23.265C15.3748 22.982 14.8474 22.982 14.458 23.265L7.42813 28.3725C6.55733 29.0051 5.38569 28.1539 5.7183 27.1302L8.40347 18.8661C8.55222 18.4083 8.38927 17.9068 7.99984 17.6238L0.96997 12.5163C0.0991768 11.8837 0.546707 10.5063 1.62307 10.5063H10.3125C10.7938 10.5063 11.2204 10.1964 11.3692 9.73855L14.0544 1.47444Z" fill="#CF9C19"/>
</svg>
