<svg width="30" height="29" viewBox="0 0 30 29" fill="none" xmlns="http://www.w3.org/2000/svg">
<path d="M13.721 1.47444C14.0537 0.450766 15.5019 0.450768 15.8345 1.47445L18.5197 9.73855C18.6684 10.1964 19.095 10.5063 19.5764 10.5063H28.2658C29.3422 10.5063 29.7897 11.8837 28.9189 12.5163L21.889 17.6238C21.4996 17.9068 21.3366 18.4083 21.4854 18.8661L24.1706 27.1302C24.5032 28.1539 23.3315 29.0051 22.4607 28.3724L15.4309 23.265C15.0414 22.982 14.5141 22.982 14.1247 23.265L7.09481 28.3725C6.22402 29.0051 5.05238 28.1539 5.38499 27.1302L8.07016 18.8661C8.21891 18.4083 8.05596 17.9068 7.66653 17.6238L0.636657 12.5163C-0.234136 11.8837 0.213394 10.5063 1.28975 10.5063H9.97915C10.4605 10.5063 10.8871 10.1964 11.0359 9.73855L13.721 1.47444Z" fill="#CF9C19"/>
</svg>
