<svg width="205" height="216" viewBox="0 0 205 216" fill="none" xmlns="http://www.w3.org/2000/svg">
<g clip-path="url(#clip0_98_18)">
<path opacity="0.65" fill-rule="evenodd" clip-rule="evenodd" d="M112.28 214.367C109.547 212.951 107.646 210.494 106.678 206.386C105.658 202.052 100.925 179.765 100.91 179.7L29.5324 148.984C22.6858 146.013 11.4946 148.321 4.86375 153.237C-1.7733 158.151 -1.59458 164.542 5.25816 167.513L112.536 214.565C112.582 214.584 112.634 214.602 112.687 214.621L112.656 214.581C112.502 214.516 112.406 214.438 112.28 214.367Z" fill="white"/>
<path fill-rule="evenodd" clip-rule="evenodd" d="M189.363 0.0770515C179.836 0.771004 171.415 5.92608 170.398 11.6388L154.93 98.4758C154.656 98.2 176.357 120.515 182.113 126.407C183.9 128.238 184.464 130.205 184.208 132.136L204.902 9.12941C205.919 3.4167 198.894 -0.613803 189.363 0.0770515Z" fill="white"/>
<path fill-rule="evenodd" clip-rule="evenodd" d="M154.932 98.4763L148.6 134.286C148.6 134.286 147.376 139.348 152.88 142.254C159.218 145.6 167.75 144.652 173.33 142.722C180.577 140.216 188.092 132.53 182.115 126.408C176.356 120.515 154.651 98.1944 154.932 98.4763Z" fill="white"/>
<path opacity="0.65" fill-rule="evenodd" clip-rule="evenodd" d="M110.181 52.6675C110.822 53.4699 111.309 54.3993 111.549 55.4991L123.911 113.308V113.311L150.086 140.056C150.099 140.05 150.117 140.043 150.129 140.037C147.902 137.317 148.598 134.284 148.598 134.284L154.93 98.4776V98.4745L110.181 52.6675Z" fill="white"/>
<path fill-rule="evenodd" clip-rule="evenodd" d="M111.549 55.4986C110.15 49.0857 100.77 48.1161 96.9249 48.1191C88.1741 48.1253 81.6018 52.5648 79.7191 54.2842C77.6609 56.1678 74.3423 60.3903 76.6163 64.7492C79.0998 69.5046 123.914 113.31 123.914 113.31L111.549 55.4986Z" fill="white"/>
<path fill-rule="evenodd" clip-rule="evenodd" d="M142.958 202.691C142.951 210.662 130.799 216 120.671 216C113.165 216 108.435 213.847 106.679 206.387C105.656 202.047 100.907 179.691 100.907 179.691C100.907 179.691 132.832 193.558 136.521 195.064C141.488 197.093 142.961 199.639 142.958 202.691Z" fill="white"/>
<path fill-rule="evenodd" clip-rule="evenodd" d="M123.908 113.293C123.908 113.296 123.911 113.299 123.911 113.302L123.908 113.28V113.293Z" fill="white"/>
<path fill-rule="evenodd" clip-rule="evenodd" d="M123.913 113.31C123.913 113.307 123.913 113.307 123.913 113.304V113.31C123.913 113.31 79.1017 69.5041 76.6182 64.7486C76.3378 64.2127 76.1467 63.6767 76.0204 63.147L100.911 179.694L100.914 179.697C101.046 179.753 132.842 193.56 136.521 195.063C140.841 196.829 142.363 198.805 142.878 201.528C142.08 197.572 132.09 151.353 123.913 113.31Z" fill="white"/>
</g>
<defs>
<clipPath id="clip0_98_18">
<rect width="205" height="216" fill="white"/>
</clipPath>
</defs>
</svg>
