<svg width="66" height="65" viewBox="0 0 66 65" fill="none" xmlns="http://www.w3.org/2000/svg">
<circle cx="33" cy="32.5" r="32.5" fill="#122C4B"/>
<path d="M21.28 32.7202L15.72 38.3002C15.34 38.7002 15.34 39.3202 15.72 39.7202L21.28 45.3002C21.9 45.9402 22.98 45.4802 22.98 44.6002V41.0002H35C36.1 41.0002 37 40.1002 37 39.0002C37 37.9002 36.1 37.0002 35 37.0002H22.98V33.4202C22.98 32.5202 21.9 32.0802 21.28 32.7202V32.7202ZM50.3 26.3002L44.74 20.7202C44.12 20.0802 43.04 20.5402 43.04 21.4202V25.0002H31C29.9 25.0002 29 25.9002 29 27.0002C29 28.1002 29.9 29.0002 31 29.0002H43.02V32.5802C43.02 33.4802 44.1 33.9202 44.72 33.2802L50.28 27.7002C50.68 27.3202 50.68 26.6802 50.3 26.3002V26.3002Z" fill="white"/>
</svg>
