<svg width="65" height="65" viewBox="0 0 65 65" fill="none" xmlns="http://www.w3.org/2000/svg">
<circle cx="32.5" cy="32.5" r="32.5" fill="#0F2540" fill-opacity=""/>
<path d="M49.6666 22.8728C48.4271 23.4165 47.1062 23.7769 45.7291 23.9519C47.1458 23.1061 48.2271 21.7769 48.7354 20.1748C47.4146 20.9623 45.9562 21.5186 44.4021 21.829C43.1479 20.4936 41.3604 19.6665 39.4104 19.6665C35.6271 19.6665 32.5812 22.7373 32.5812 26.5019C32.5812 27.0436 32.6271 27.5644 32.7396 28.0603C27.0583 27.7832 22.0312 25.0603 18.6541 20.9123C18.0646 21.9353 17.7187 23.1061 17.7187 24.3665C17.7187 26.7332 18.9375 28.8311 20.7541 30.0457C19.6562 30.0248 18.5791 29.7061 17.6666 29.204C17.6666 29.2248 17.6666 29.2519 17.6666 29.279C17.6666 32.5998 20.0354 35.3582 23.1416 35.9936C22.5854 36.1457 21.9791 36.2186 21.35 36.2186C20.9125 36.2186 20.4708 36.1936 20.0562 36.1019C20.9416 38.8082 23.4541 40.7978 26.4416 40.8623C24.1166 42.6811 21.1646 43.7769 17.9687 43.7769C17.4083 43.7769 16.8708 43.7519 16.3333 43.6832C19.3604 45.6353 22.9479 46.7498 26.8166 46.7498C39.3916 46.7498 46.2666 36.3332 46.2666 27.304C46.2666 27.0019 46.2562 26.7103 46.2416 26.4207C47.5979 25.4582 48.7375 24.2561 49.6666 22.8728Z" fill="white"/>
</svg>
