<svg width="1519" height="1600" viewBox="0 0 1519 1600" fill="none" xmlns="http://www.w3.org/2000/svg">
<g opacity="0.1" clip-path="url(#clip0_128_869)">
<path opacity="0.65" fill-rule="evenodd" clip-rule="evenodd" d="M831.821 1587.9C811.574 1577.41 797.489 1559.22 790.321 1528.79C782.765 1496.68 747.702 1331.59 747.588 1331.11L218.79 1103.58C168.067 1081.57 85.1577 1098.67 36.033 1135.09C-13.1374 1171.48 -11.8134 1218.83 38.9549 1240.83L833.716 1589.37C834.059 1589.51 834.447 1589.65 834.835 1589.78L834.606 1589.48C833.465 1589 832.757 1588.43 831.821 1587.9Z" fill="white"/>
<path fill-rule="evenodd" clip-rule="evenodd" d="M1402.89 0.570752C1332.31 5.71114 1269.92 43.8969 1262.39 86.2133L1147.79 729.45C1145.76 727.408 1306.54 892.703 1349.18 936.351C1362.42 949.913 1366.6 964.485 1364.7 978.782L1518.01 67.6253C1525.54 25.3089 1473.5 -4.54669 1402.89 0.570752Z" fill="white"/>
<path fill-rule="evenodd" clip-rule="evenodd" d="M1147.81 729.453L1100.9 994.71C1100.9 994.71 1091.83 1032.21 1132.6 1053.73C1179.56 1078.52 1242.77 1071.5 1284.11 1057.2C1337.8 1038.63 1393.48 981.699 1349.19 936.353C1306.53 892.706 1145.73 727.364 1147.81 729.453Z" fill="white"/>
<path opacity="0.65" fill-rule="evenodd" clip-rule="evenodd" d="M816.271 390.131C821.019 396.075 824.626 402.959 826.407 411.106L917.991 839.319V839.342L1111.91 1037.45C1112 1037.41 1112.14 1037.36 1112.23 1037.32C1095.73 1017.17 1100.88 994.701 1100.88 994.701L1147.79 729.466V729.443L816.271 390.131Z" fill="white"/>
<path fill-rule="evenodd" clip-rule="evenodd" d="M826.404 411.102C816.041 363.599 746.554 356.416 718.065 356.439C653.235 356.485 604.544 389.37 590.597 402.106C575.348 416.058 550.763 447.337 567.609 479.625C586.008 514.85 918.011 839.337 918.011 839.337L826.404 411.102Z" fill="white"/>
<path fill-rule="evenodd" clip-rule="evenodd" d="M1059.1 1501.41C1059.05 1560.46 969.019 1600 893.985 1600C838.377 1600 803.337 1584.05 790.326 1528.79C782.747 1496.64 747.57 1331.05 747.57 1331.05C747.57 1331.05 984.085 1433.76 1011.41 1444.92C1048.21 1459.95 1059.12 1478.81 1059.1 1501.41Z" fill="white"/>
<path fill-rule="evenodd" clip-rule="evenodd" d="M917.968 839.204C917.968 839.227 917.991 839.25 917.991 839.273L917.968 839.112V839.204Z" fill="white"/>
<path fill-rule="evenodd" clip-rule="evenodd" d="M918.002 839.33C918.002 839.307 918.002 839.307 918.002 839.284V839.33C918.002 839.33 586.022 514.843 567.623 479.618C565.546 475.648 564.13 471.678 563.194 467.753L747.595 1331.06L747.618 1331.09C748.599 1331.5 984.156 1433.78 1011.41 1444.91C1043.42 1457.99 1054.69 1472.63 1058.5 1492.8C1052.59 1463.5 978.586 1121.13 918.002 839.33Z" fill="white"/>
</g>
<defs>
<clipPath id="clip0_128_869">
<rect width="1518.74" height="1600" fill="white"/>
</clipPath>
</defs>
</svg>
