<svg width="1000" height="1057" viewBox="0 0 1000 1057" fill="none" xmlns="http://www.w3.org/2000/svg">
<g clip-path="url(#clip0_10_83)">
<path fill-rule="evenodd" clip-rule="evenodd" d="M547.706 1048.83C534.374 1041.9 525.101 1029.88 520.381 1009.78C515.406 988.576 492.319 879.533 492.244 879.214L144.06 728.927C110.662 714.391 56.0714 725.684 23.7256 749.739C-8.65024 773.778 -7.77846 805.048 25.6495 819.584L548.954 1049.8C549.179 1049.89 549.435 1049.98 549.691 1050.07L549.54 1049.87C548.789 1049.55 548.323 1049.18 547.706 1048.83Z" fill="#122C4B"/>
<path fill-rule="evenodd" clip-rule="evenodd" d="M923.723 0.376988C877.249 3.77227 836.17 28.9944 831.21 56.9448L755.757 481.81C754.419 480.461 860.279 589.641 888.356 618.47C897.074 627.428 899.825 637.053 898.577 646.496L999.523 44.6673C1004.48 16.7168 970.213 -3.00314 923.723 0.376988Z" fill="#BFDEF0"/>
<path fill-rule="evenodd" clip-rule="evenodd" d="M755.764 481.812L724.876 657.018C724.876 657.018 718.909 681.785 745.754 696.003C776.672 712.373 818.292 707.735 845.512 698.291C880.864 686.029 917.523 648.423 888.364 618.472C860.272 589.642 754.397 480.432 755.764 481.812Z" fill="#12B8E7"/>
<path fill-rule="evenodd" clip-rule="evenodd" d="M537.468 257.686C540.594 261.612 542.969 266.159 544.141 271.54L604.444 554.379V554.395L732.129 685.249C732.189 685.219 732.279 685.189 732.339 685.158C721.472 671.85 724.869 657.011 724.869 657.011L755.757 481.82V481.805L537.468 257.686Z" fill="#8CBFEB"/>
<path fill-rule="evenodd" clip-rule="evenodd" d="M544.14 271.537C537.316 240.161 491.563 235.417 472.805 235.432C430.118 235.462 398.058 257.183 388.874 265.595C378.833 274.811 362.645 295.471 373.738 316.797C385.853 340.064 604.457 554.392 604.457 554.392L544.14 271.537Z" fill="#00B2C7"/>
<path fill-rule="evenodd" clip-rule="evenodd" d="M697.354 991.701C697.324 1030.7 638.043 1056.82 588.638 1056.82C552.023 1056.82 528.951 1046.28 520.384 1009.78C515.394 988.549 492.232 879.172 492.232 879.172C492.232 879.172 647.963 947.017 665.955 954.384C690.184 964.312 697.369 976.771 697.354 991.701Z" fill="#1F6973"/>
<path fill-rule="evenodd" clip-rule="evenodd" d="M604.429 554.304C604.429 554.319 604.444 554.334 604.444 554.349L604.429 554.243V554.304Z" fill="#009E6A"/>
<path fill-rule="evenodd" clip-rule="evenodd" d="M604.451 554.387C604.451 554.372 604.451 554.372 604.451 554.357V554.387C604.451 554.387 385.862 340.06 373.747 316.793C372.379 314.171 371.447 311.548 370.831 308.957L492.248 879.182L492.263 879.197C492.909 879.47 648.01 947.027 665.956 954.379C687.029 963.019 694.454 972.689 696.964 986.013C693.072 966.656 644.342 740.521 604.451 554.387Z" fill="#0AA872"/>
</g>
<defs>
<clipPath id="clip0_10_83">
<rect width="1000" height="1056.82" fill="white"/>
</clipPath>
</defs>
</svg>
